<?xml version="1.0" encoding="utf-8"?>
<!-- Generator: Adobe Illustrator 22.1.0, SVG Export Plug-In . SVG Version: 6.00 Build 0)  -->
<svg version="1.1" id="Layer_1" xmlns="http://www.w3.org/2000/svg" xmlns:xlink="http://www.w3.org/1999/xlink" x="0px" y="0px"
	 viewBox="0 0 256 256" style="enable-background:new 0 0 256 256;" xml:space="preserve">
<style type="text/css">
	.st0{fill:#D73735;}
	.st1{fill:#F85252;}
	.st2{fill:#EDAF85;}
	.st3{fill:#F7C09A;}
	.st4{fill:#D8D6D7;}
	.st5{fill:#FFFFFF;}
	.st6{fill:#1C868E;}
	.st7{fill:#40C4DF;}
	.st8{fill:#491352;}
	.st9{fill:#56C1B3;}
	.st10{fill:#7BEFE4;}
</style>
<g>
	<path class="st1" d="M246.5,235.439H9.5c-2.761,0-5-2.239-5-5V25.561c0-2.761,2.239-5,5-5h237c2.761,0,5,2.239,5,5v204.879
		C251.5,233.201,249.261,235.439,246.5,235.439z"/>
	<path class="st4" d="M251.5,55.74v174.7c0,2.76-2.24,5-5,5H9.5c-2.76,0-5-2.24-5-5V25.56c0-2.76,2.24-5,5-5h59.95l25.51,31.7
		c1.77,2.2,4.45,3.48,7.28,3.48H251.5z"/>
	<path class="st5" d="M251.5,55.74v174.7c0,2.761-2.239,5-5,5H24.73c-2.761,0-5-2.239-5-5V25.56c0-2.761,2.239-5,5-5h44.72
		l25.51,31.7c1.77,2.2,4.45,3.48,7.28,3.48H251.5z"/>
	<circle class="st5" cx="205.342" cy="38.457" r="6.896"/>
	<circle class="st5" cx="230.584" cy="38.457" r="6.896"/>
	<circle class="st1" cx="44.322" cy="178.219" r="13.166"/>
	<path class="st4" d="M219.844,147.67H36.156c-2.761,0-5-2.239-5-5V83.118c0-2.761,2.239-5,5-5h183.688c2.761,0,5,2.239,5,5v59.552
		C224.844,145.431,222.605,147.67,219.844,147.67z"/>
	<circle class="st1" cx="147.415" cy="178.219" r="13.166"/>
	<path class="st7" d="M104.344,95.362l9.923,37.034c0.996,3.718,5.644,4.963,8.365,2.241l27.111-27.111
		c2.722-2.722,1.476-7.369-2.241-8.365l-37.034-9.923C106.75,88.242,103.348,91.644,104.344,95.362z"/>
	<path class="st6" d="M150.367,127.006l-8.255,8.255c-1.953,1.953-5.118,1.953-7.071,0l-6.516-6.516l15.326-15.326l6.516,6.516
		C152.319,121.888,152.319,125.053,150.367,127.006z"/>
	<g>
		<path class="st8" d="M246.5,18.561c-9.417,0-227.386,0-236.781,0H9.5c-3.86,0-7,3.14-7,7v0.219v204.44v0.219c0,3.86,3.14,7,7,7
			h0.219H246.28h0.22c3.859,0,7-3.14,7-7v-0.219V55.739V25.561C253.5,21.701,250.359,18.561,246.5,18.561z M249.5,230.22
			c0,1.775-1.444,3.219-3.22,3.219H9.719c-1.775,0-3.219-1.444-3.219-3.219V25.78c0-1.775,1.444-3.219,3.219-3.219h58.773
			L93.404,53.51c2.163,2.688,5.382,4.229,8.832,4.229H249.5V230.22z M249.5,53.739H102.235c-2.232,0-4.315-0.998-5.715-2.737
			L73.627,22.561H246.5c1.654,0,3,1.346,3,3V53.739z"/>
		<path class="st8" d="M60.76,39.618c0-1.104-0.896-2-2-2H24.217c-1.104,0-2,0.896-2,2s0.896,2,2,2H58.76
			C59.864,41.618,60.76,40.722,60.76,39.618z"/>
		<path class="st8" d="M205.343,29.561c-4.905,0-8.896,3.991-8.896,8.896c0,4.905,3.991,8.896,8.896,8.896
			c4.905,0,8.896-3.991,8.896-8.896C214.239,33.552,210.248,29.561,205.343,29.561z M205.343,43.354c-2.7,0-4.896-2.196-4.896-4.896
			s2.196-4.896,4.896-4.896s4.896,2.197,4.896,4.896S208.043,43.354,205.343,43.354z"/>
		<path class="st8" d="M44.322,193.385c8.363,0,15.166-6.803,15.166-15.166s-6.803-15.167-15.166-15.167
			s-15.167,6.804-15.167,15.167S35.959,193.385,44.322,193.385z M44.322,167.053c6.157,0,11.166,5.009,11.166,11.167
			c0,6.157-5.009,11.166-11.166,11.166c-6.157,0-11.167-5.009-11.167-11.166C33.156,172.062,38.165,167.053,44.322,167.053z"/>
		<path class="st8" d="M230.584,29.561c-4.905,0-8.896,3.991-8.896,8.896c0,4.905,3.99,8.896,8.896,8.896s8.896-3.991,8.896-8.896
			C239.48,33.552,235.489,29.561,230.584,29.561z M230.584,43.354c-2.699,0-4.896-2.196-4.896-4.896s2.196-4.896,4.896-4.896
			c2.7,0,4.896,2.197,4.896,4.896S233.284,43.354,230.584,43.354z"/>
		<path class="st8" d="M29.156,83.118v59.552c0,3.86,3.14,7,7,7h183.688c3.859,0,7-3.14,7-7V83.118c0-3.86-3.141-7-7-7H36.156
			C32.296,76.118,29.156,79.258,29.156,83.118z M222.844,83.118v59.552c0,1.654-1.346,3-3,3H36.156c-1.654,0-3-1.346-3-3V83.118
			c0-1.654,1.346-3,3-3h183.688C221.498,80.118,222.844,81.463,222.844,83.118z"/>
		<path class="st8" d="M69.602,167.053h52.149c2.642,0,2.646-4,0-4H69.602c-1.104,0-2,0.896-2,2S68.498,167.053,69.602,167.053z"/>
		<path class="st8" d="M69.602,180.219h52.149c2.642,0,2.646-4,0-4H69.602c-1.104,0-2,0.896-2,2S68.498,180.219,69.602,180.219z"/>
		<path class="st8" d="M69.602,189.385c-2.642,0-2.646,4,0,4h52.149c2.642,0,2.646-4,0-4H69.602z"/>
		<path class="st8" d="M162.581,178.219c0-8.363-6.804-15.167-15.166-15.167s-15.166,6.804-15.166,15.167
			s6.804,15.166,15.166,15.166S162.581,186.582,162.581,178.219z M136.249,178.219c0-6.157,5.009-11.167,11.166-11.167
			s11.166,5.009,11.166,11.167c0,6.157-5.009,11.166-11.166,11.166S136.249,184.376,136.249,178.219z"/>
		<path class="st8" d="M224.844,163.053h-52.149c-2.642,0-2.646,4,0,4h52.149C227.486,167.053,227.49,163.053,224.844,163.053z"/>
		<path class="st8" d="M224.844,176.219h-52.149c-2.642,0-2.646,4,0,4h52.149C227.486,180.219,227.49,176.219,224.844,176.219z"/>
		<path class="st8" d="M224.844,189.385h-52.149c-2.642,0-2.646,4,0,4h52.149C227.486,193.385,227.49,189.385,224.844,189.385z"/>
		<path class="st8" d="M224.844,205H31.156c-2.642,0-2.646,4,0,4h193.688C227.486,209,227.49,205,224.844,205z"/>
		<path class="st8" d="M224.844,219H31.156c-2.642,0-2.646,4,0,4h193.688C227.486,223,227.49,219,224.844,219z"/>
		<path class="st8" d="M112.336,132.914c1.396,5.212,7.902,6.946,11.711,3.138l4.478-4.479l5.102,5.103
			c2.728,2.729,7.171,2.729,9.899,0l8.255-8.255c2.729-2.729,2.729-7.17,0-9.899l-5.102-5.102c4.152-4.152,7.573-6.448,6.291-11.24
			c-0.655-2.445-2.506-4.295-4.95-4.95l-37.034-9.923c-5.21-1.396-9.969,3.367-8.573,8.573L112.336,132.914z M148.953,121.349
			c1.169,1.17,1.169,3.073,0,4.243l-8.255,8.254c-1.169,1.169-3.072,1.17-4.243,0l-5.102-5.102l12.497-12.497L148.953,121.349z
			 M109.951,91.17l37.034,9.923c2.23,0.597,2.979,3.384,1.345,5.019c-8.511,8.511-18.723,18.723-27.11,27.111
			c-1.633,1.635-4.422,0.885-5.02-1.345l-9.923-37.034C105.679,92.615,107.715,90.573,109.951,91.17z"/>
	</g>
</g>
</svg>
